#!OML:ASF F:\VICON\USERDATA\INSTALL\Justin_Nancy\Justin_Nancy.ASF
:FULLY-SPECIFIED
:DEGREES
16
root -9.29361 17.2659 -28.4318 -0.925902 -4.48525 -4.30455
lowerback 7.48075 -2.47525 -2.03623
upperback -2.19474 -3.13958 6.55612
thorax -6.03818 -1.34806 8.52349
lowerneck -9.10237 0.312566 -12.2623
upperneck 18.2641 1.45527 5.26412
head 6.95873 0.314355 3.87342
rclavicle -2.24627e-014 9.54166e-015
rhumerus -34.4933 -0.153317 -78.7576
rradius 32.9093
rwrist 4.66062
rhand -14.2799 12.0313
rfingers 7.12502
rthumb 11.8592 -17.6129
lclavicle -2.24627e-014 9.54166e-015
lhumerus -40.364 10.1647 88.0064
lradius 26.356
lwrist -7.89119
lhand -10.0291 26.7008
lfingers 7.12502
lthumb 15.9557 56.0636
rfemur -2.99551 6.97417 31
rtibia 27.95
rfoot -17.6075 -8.86501
rtoes 3.55889
lfemur -30.7763 2.52438 -17.2827
ltibia 58.4711
lfoot -10.3341 6.05395
ltoes -7.31066
17
root -9.29008 17.2243 -28.1894 -0.852337 -4.84846 -4.48761
lowerback 7.50883 -2.47383 -1.86101
upperback -2.22874 -3.11342 6.65178
thorax -6.09886 -1.33712 8.5284
lowerneck -8.91368 0.417182 -12.5009
upperneck 18.2103 1.60754 5.28835
head 6.89277 0.373492 3.92885
rclavicle -3.02153e-014 8.5875e-014
rhumerus -34.259 1.37776 -79.2017
rradius 33.9441
rwrist 4.13701
rhand -14.687 11.752
rfingers 7.12502
rthumb 11.4667 -17.9144
lclavicle -3.02153e-014 8.5875e-014
lhumerus -40.984 10.6632 88.0301
lradius 26.2074
lwrist -7.93379
lhand -9.32911 27.5277
lfingers 7.12502
lthumb 16.6296 56.8353
rfemur -1.92205 7.22228 31.2997
rtibia 27.5682
rfoot -17.8842 -9.09487
rtoes 3.5902
lfemur -31.6826 2.68847 -17.1599
ltibia 56.5378
lfoot -10.3861 6.40529
ltoes -6.57699
18
root -9.28413 17.1855 -27.9466 -0.762674 -5.28561 -4.7619
lowerback 7.89373 -2.76551 -2.08262
upperback -2.52864 -3.48092 7.24271
thorax -6.53725 -1.47565 9.40808
lowerneck -8.47576 0.903488 -13.1548
upperneck 18.0682 2.37582 4.95254
head 6.70256 0.672249 3.97227
rclavicle 3.97569e-015 3.65764e-014
rhumerus -34.2483 4.80953 -79.6499
rradius 35.0943
rwrist 3.32955
rhand -14.6516 11.9102
rfingers 7.12502
rthumb 11.5007 -17.7543
lclavicle 3.97569e-015 3.65764e-014
lhumerus -42.4587 12.7087 87.9702
lradius 26.4431
lwrist -8.20866
lhand -9.13198 27.5109
lfingers 7.12502
lthumb 16.8194 56.8024
rfemur -0.840926 7.2767 31.6372
rtibia 27.203
rfoot -18.2702 -9.0678
rtoes 3.46716
lfemur -32.4336 2.8611 -16.8956
ltibia 54.3851
lfoot -10.9275 6.67919
ltoes -2.59773
19
root -9.28549 17.1481 -27.7089 -0.779868 -5.46597 -5.07322
lowerback 8.0763 -2.33415 -1.29847
upperback -2.25559 -2.84197 6.86134
thorax -6.51293 -1.20428 8.44505
lowerneck -8.60171 0.147352 -12.5108
upperneck 16.6274 1.29998 4.72239
head 6.3703 0.227002 3.68249
rclavicle 3.13086e-015 7.95139e-015
rhumerus -33.589 4.2755 -79.9815
rradius 36.0364
rwrist 2.99869
rhand -14.3066 12.8555
rfingers 7.12502
rthumb 11.8335 -16.7902
lclavicle 3.13086e-015 7.95139e-015
lhumerus -42.1542 11.4032 88.1974
lradius 26.1385
lwrist -8.12833
lhand -9.30859 26.99
lfingers 7.12502
lthumb 16.6494 56.296
rfemur 0.422288 7.38866 32.0993
rtibia 26.7049
rfoot -18.781 -9.26357
rtoes 3.70378
lfemur -32.9944 2.68459 -16.475
ltibia 51.9728
lfoot -10.9731 6.71869
ltoes -2.15834
20
root -9.28709 17.116 -27.4687 -0.727494 -5.59983 -5.16031
lowerback 7.84093 -1.34523 0.0686692
upperback -1.50299 -1.47433 5.66537
thorax -5.83947 -0.630031 6.12452
lowerneck -11.4345 -0.745259 -11.3986
upperneck 18.0295 0.0282494 5.91645
head 7.42021 -0.222009 3.84373
rclavicle 2.5345e-015 4.77083e-015
rhumerus -32.1768 0.533227 -80.218
rradius 36.6653
rwrist 3.30018
rhand -14.4384 11.4605
rfingers 7.12502
rthumb 11.7064 -18.1924
lclavicle 2.5345e-015 4.77083e-015
lhumerus -40.3708 7.68989 88.5081
lradius 25.4616
lwrist -8.0641
lhand -9.66111 27.0167
lfingers 7.12502
lthumb 16.31 56.3508
rfemur 1.66319 7.60557 32.3296
rtibia 26.0335
rfoot -19.1083 -9.61771
rtoes 3.12269
lfemur -33.5091 2.35669 -16.2609
ltibia 49.3075
lfoot -10.5572 6.60306
ltoes -3.97045
